<svg width="32" height="32" viewBox="0 0 32 32" fill="none" xmlns="http://www.w3.org/2000/svg">
<rect width="32" height="32" rx="16" fill="#1B1B18"/>
<g style="mix-blend-mode:difference">
<path d="M12 10.6C12 10.2686 12.2686 10 12.6 10H13.65C13.9814 10 14.25 10.2686 14.25 10.6V11.925C14.25 12.4584 14.25 12.7271 14.3844 12.8625C14.5208 13 14.7958 13 15.35 13L18.15 13C18.4814 13 18.75 13.2686 18.75 13.6V14.65C18.75 14.9814 18.4814 15.25 18.15 15.25H15.037C14.6649 15.25 14.4687 15.2522 14.3653 15.3513C14.2517 15.4601 14.25 15.6858 14.25 16.1539L14.25 18.675C14.25 19.2084 14.25 19.4771 14.3844 19.6125C14.5208 19.75 14.7958 19.75 15.35 19.75H19.4C19.7314 19.75 20 20.0186 20 20.35V21.4C20 21.7314 19.7314 22 19.4 22H14.85C14.5186 22 14.25 21.7314 14.25 21.4V20.6539C14.25 20.1858 14.2483 19.9601 14.1347 19.8513C14.031 19.752 13.834 19.75 13.4598 19.75C13.4524 19.75 13.445 19.75 13.4375 19.75H12.6C12.2686 19.75 12 19.4814 12 19.15V15.85C12 15.5186 12.2686 15.25 12.6 15.25L13.15 15.25C13.7042 15.25 13.9792 15.25 14.1156 15.1125C14.25 14.9771 14.25 14.7084 14.25 14.175L14.25 13.9039C14.25 13.4358 14.2483 13.2101 14.1347 13.1013C14.0313 13.0022 13.8351 13 13.463 13H12.6C12.2686 13 12 12.7314 12 12.4V10.6Z" fill="white"/>
</g>
</svg>
