<svg width="16" height="16" viewBox="0 0 16 16" fill="none" xmlns="http://www.w3.org/2000/svg">
<path fill-rule="evenodd" clip-rule="evenodd" d="M3.33334 1.33331C3.70153 1.33331 4.00001 1.63179 4.00001 1.99998V4.66665C4.00001 5.03484 3.70153 5.33331 3.33334 5.33331C2.96515 5.33331 2.66668 5.03484 2.66668 4.66665V1.99998C2.66668 1.63179 2.96515 1.33331 3.33334 1.33331ZM8.00001 1.33331C8.3682 1.33331 8.66668 1.63179 8.66668 1.99998V4.11378C9.44347 4.38834 10 5.12917 10 5.99998C10 7.10455 9.10458 7.99998 8.00001 7.99998C6.89544 7.99998 6.00001 7.10455 6.00001 5.99998C6.00001 5.12917 6.55655 4.38834 7.33334 4.11378V1.99998C7.33334 1.63179 7.63182 1.33331 8.00001 1.33331ZM12.6667 1.33331C13.0349 1.33331 13.3333 1.63179 13.3333 1.99998V5.99998C13.3333 6.36817 13.0349 6.66665 12.6667 6.66665C12.2985 6.66665 12 6.36817 12 5.99998V1.99998C12 1.63179 12.2985 1.33331 12.6667 1.33331ZM8.00001 5.33331C7.63182 5.33331 7.33334 5.63179 7.33334 5.99998C7.33334 6.36817 7.63182 6.66665 8.00001 6.66665C8.3682 6.66665 8.66668 6.36817 8.66668 5.99998C8.66668 5.63179 8.3682 5.33331 8.00001 5.33331ZM3.33334 7.99998C2.96515 7.99998 2.66668 8.29846 2.66668 8.66665C2.66668 9.03484 2.96515 9.33331 3.33334 9.33331C3.70153 9.33331 4.00001 9.03484 4.00001 8.66665C4.00001 8.29846 3.70153 7.99998 3.33334 7.99998ZM1.33334 8.66665C1.33334 7.56208 2.22877 6.66665 3.33334 6.66665C4.43791 6.66665 5.33334 7.56208 5.33334 8.66665C5.33334 9.53746 4.7768 10.2783 4.00001 10.5528V14C4.00001 14.3682 3.70153 14.6666 3.33334 14.6666C2.96515 14.6666 2.66668 14.3682 2.66668 14L2.66668 10.5528C1.88988 10.2783 1.33334 9.53746 1.33334 8.66665ZM12.6667 9.33331C12.2985 9.33331 12 9.63179 12 9.99998C12 10.3682 12.2985 10.6666 12.6667 10.6666C13.0349 10.6666 13.3333 10.3682 13.3333 9.99998C13.3333 9.63179 13.0349 9.33331 12.6667 9.33331ZM10.6667 9.99998C10.6667 8.89541 11.5621 7.99998 12.6667 7.99998C13.7712 7.99998 14.6667 8.89541 14.6667 9.99998C14.6667 10.8708 14.1101 11.6116 13.3333 11.8862V14C13.3333 14.3682 13.0349 14.6666 12.6667 14.6666C12.2985 14.6666 12 14.3682 12 14V11.8862C11.2232 11.6116 10.6667 10.8708 10.6667 9.99998ZM8.00001 9.33331C8.3682 9.33331 8.66668 9.63179 8.66668 9.99998V14C8.66668 14.3682 8.3682 14.6666 8.00001 14.6666C7.63182 14.6666 7.33334 14.3682 7.33334 14V9.99998C7.33334 9.63179 7.63182 9.33331 8.00001 9.33331Z" fill="#706F6C"/>
</svg>
